P3
2 2
255
125 0 0 255 0 0 
100 255 0 255 0 0 
